<?xml version="1.0" standalone="no"?><!DOCTYPE svg PUBLIC "-//W3C//DTD SVG 1.1//EN" "http://www.w3.org/Graphics/SVG/1.1/DTD/svg11.dtd"><svg t="1616568105274" class="icon" viewBox="0 0 1024 1024" version="1.1" xmlns="http://www.w3.org/2000/svg" p-id="1211" xmlns:xlink="http://www.w3.org/1999/xlink" width="200" height="200"><defs><style type="text/css"></style></defs><path d="M335.936 0L40.72 169.76v284.84L335.936 624.32l295.216-169.72V169.76z" fill="#FFE6C6" p-id="1212"></path><path d="M631.152 454.6L335.936 624.32V339.48L631.152 169.76z" fill="#FFD2A6" p-id="1213"></path><path d="M40.72 454.6L335.936 624.32V339.48L40.72 169.76z" fill="#FCBC90" p-id="1214"></path><path d="M81.096 216.16l-26.12 31.888 10.032 5.76v21.672l32.08 18.44v-21.664l10.12 5.816z" fill="#284363" p-id="1215"></path><path d="M335.152 9.96L226.576 71.736l66.584 38.424 107.44-62.28z" fill="#FFFFFF" p-id="1216"></path><path d="M336.24 24.96l14.16 8.208-79.392 45.008-14.152-8.216zM356.48 37.504l14.144 8.216-79.384 45.008-14.152-8.216z" fill="#C8CED6" p-id="1217"></path><path d="M422.424 49.728L128.68 220.328l98.328 56.536 293.736-170.592z" fill="#FFFFFF" p-id="1218"></path><path d="M483.224 84.6L227.352 232.792l-22.368-12.84L460.856 71.76z" fill="#424242" p-id="1219"></path><path d="M961.104 660.976l-1.736-1.28c-0.112-0.088-0.208-0.192-0.328-0.28l-100.368-73.88-58.64-202.448-41.304-23.752-2.688-1.544-124.888-71.792-295.216 169.336V624.32L40.872 454.672V597.28a47.28 47.28 0 0 0 23.744 40.96l271.32 155.984 329.944 189.688 17.408 0.968v0.8l5.184-0.512 9.136 0.512 2.96-1.696 271.968-156.36 1.04-0.6a5 5 0 0 0 1.632-1.504c2.12-2.208 3.36-5.16 3.36-8.288V695.488c0-13.6-6.48-26.408-17.464-34.512z m-3.44 24.84l0.016-0.008-0.016 0.008z" fill="#FF5331" p-id="1220"></path><path d="M208.856 588.896l0.104 0.16c18.544-9.504 40.952 0.36 57.304 28.56 22.544 38.88 24.992 97.696 5.464 131.368-5.12 8.848-11.28 15.008-17.944 18.68l-0.016 0.16-49.344 28.304L159.76 617.12l49.088-28.216zM600.976 813.08l0.104 0.16c18.536-9.504 40.952 0.368 57.304 28.56 22.536 38.88 24.992 97.704 5.464 131.376-5.128 8.848-11.28 15.008-17.944 18.68l-0.016 0.152-49.344 28.312-44.656-179.016 49.088-28.224z" fill="#212938" p-id="1221"></path><path d="M975.04 819.624l-77.192-99.384-193.248 111.168a37.472 37.472 0 0 1-40.928-2.328l-100-73.864 265.44-152.672-58.608-202.52L503.888 552.96 335.936 455.328V624.32L40.88 454.672V597.28a47.28 47.28 0 0 0 23.744 40.96l271.32 155.984 329.944 189.688 31.728 1.768 275.968-158.656a4.992 4.992 0 0 0 1.472-7.392z" fill="#C40041" p-id="1222"></path><path d="M858.68 585.536l-58.64-202.448L503.888 552.96l59.784 202.256z" fill="#E84C3D" p-id="1223"></path><path d="M371.56 496.8l115.352 66.368 48.28 176.368-163.632-94.128zM523.488 564.664l53.104 184.088 269.752-156.2-53.4-184z" fill="#33AEFF" p-id="1224"></path><path d="M609.56 869.896c22.544 38.88 24.992 97.704 5.472 131.376-19.52 33.672-53.624 29.44-76.168-9.44-22.544-38.88-24.992-97.696-5.472-131.36 19.52-33.68 53.624-29.456 76.168 9.424z" fill="#284363" p-id="1225"></path><path d="M593.672 897.312c12.4 21.4 13.752 53.768 3.008 72.296-10.744 18.536-29.52 16.216-41.92-5.184-12.4-21.4-13.76-53.768-3.008-72.296 10.736-18.536 29.512-16.208 41.92 5.184z" fill="#C8CED6" p-id="1226"></path><path d="M588.832 905.656c9.32 16.08 10.328 40.4 2.256 54.32-8.072 13.92-22.168 12.176-31.496-3.896-9.32-16.08-10.328-40.4-2.256-54.32 8.072-13.92 22.176-12.176 31.496 3.896z" fill="#9FACBC" p-id="1227"></path><path d="M586.76 909.232c8 13.8 8.864 34.672 1.936 46.616-6.928 11.952-19.024 10.448-27.024-3.344-8-13.8-8.872-34.664-1.944-46.616 6.928-11.952 19.032-10.448 27.032 3.344z" fill="#C8CED6" p-id="1228"></path><path d="M217.44 645.712c22.544 38.88 24.992 97.696 5.472 131.36-19.52 33.68-53.624 29.456-76.168-9.424-22.544-38.88-24.992-97.704-5.472-131.376 19.528-33.664 53.632-29.44 76.168 9.44z" fill="#284363" p-id="1229"></path><path d="M201.552 673.12c12.4 21.4 13.752 53.776 3.008 72.304-10.752 18.536-29.52 16.208-41.92-5.192-12.408-21.4-13.76-53.76-3.016-72.296 10.752-18.536 29.52-16.208 41.92 5.192z" fill="#C8CED6" p-id="1230"></path><path d="M196.712 681.472c9.32 16.08 10.336 40.4 2.264 54.32-8.08 13.92-22.176 12.176-31.496-3.904s-10.336-40.4-2.264-54.32c8.08-13.92 22.176-12.176 31.496 3.904z" fill="#9FACBC" p-id="1231"></path><path d="M194.64 685.04c8 13.8 8.864 34.672 1.936 46.624-6.92 11.944-19.024 10.448-27.024-3.352-8-13.792-8.872-34.664-1.944-46.616 6.928-11.944 19.032-10.448 27.032 3.344z" fill="#C8CED6" p-id="1232"></path><path d="M961.104 660.976l-1.736-1.28c8.808 6.848 7.976 20.424-1.688 26.112l-0.016 0.008-0.128 0.08-250.408 144.056a47.392 47.392 0 0 0-23.784 41.024l-0.064 114.696 17.28-1.696 271.968-156.36a12 12 0 0 0 6.032-10.4V695.496a42.88 42.88 0 0 0-17.456-34.512z" fill="#F43834" p-id="1233"></path><path d="M732.24 891.8l-30.016 17.352c-2.568 1.472-4.152 4.192-4.152 7.144v2.376c0 2.928 3.184 4.752 5.728 3.296l30.016-17.368c2.56-1.472 4.144-4.2 4.144-7.152v-2.352a3.816 3.816 0 0 0-5.728-3.296zM968.024 756.136l-30.016 17.352c-2.568 1.472-4.152 4.2-4.152 7.152v2.368c0 2.928 3.184 4.76 5.728 3.296l30.016-17.36c2.568-1.48 4.144-4.2 4.144-7.152v-2.36a3.816 3.816 0 0 0-5.72-3.296z" fill="#F0C419" p-id="1234"></path><path d="M409.008 518.344l67.632 187.504 58.16 33.456-24.232-89.12-33.408-92.624zM376.12 499.424l-1.008-0.576-3.552-2.048v148.608l72.192 41.528z" fill="#FFFFFF" opacity=".2" p-id="1235"></path><path d="M763.584 828.136l133.808-76.696c13.32-7.64 29.952 1.936 29.952 17.24a44.208 44.208 0 0 1-22.232 38.32l-133.824 76.88c-13.328 7.656-29.976-1.92-29.976-17.232v-0.16a44.208 44.208 0 0 1 22.272-38.352z" fill="#212938" p-id="1236"></path><path d="M732.352 859.952c0 12.568-7.672 27.176-17.136 32.616-9.464 5.44-17.144-0.336-17.144-12.904s7.68-27.176 17.144-32.616c9.464-5.44 17.136 0.336 17.136 12.904zM966.608 725.488c0 12.56-7.68 27.168-17.144 32.608-9.464 5.44-17.136-0.336-17.136-12.904s7.68-27.168 17.136-32.608c9.472-5.44 17.144 0.328 17.144 12.904z" fill="#FFFFFF" p-id="1237"></path><path d="M983.28 778.8v31.776c0 6.704-3.6 12.912-9.44 16.264l-271.464 156.8a37.52 37.52 0 0 1-37.464-0.04l-27.896-16.12v-42.84l2.664-1.648 40.144 23.176c2.536 1.464 5.664 1.464 8.2 0l290.6-167.84v-2.168l4.656 2.64" fill="#C8CED6" p-id="1238"></path><path d="M781.688 629.824l42.528-113.504-31.28-107.776-54.72 32.176-97.44 270.152zM581.768 744.808l97.384-270-122.4 70.656-21.56 59.776 41.16 142.68z" fill="#FFFFFF" opacity=".2" p-id="1239"></path></svg>