<?xml version="1.0" standalone="no"?><!DOCTYPE svg PUBLIC "-//W3C//DTD SVG 1.1//EN" "http://www.w3.org/Graphics/SVG/1.1/DTD/svg11.dtd"><svg t="1616761200155" class="icon" viewBox="0 0 1024 1024" version="1.1" xmlns="http://www.w3.org/2000/svg" p-id="1890" xmlns:xlink="http://www.w3.org/1999/xlink" width="200" height="200"><defs><style type="text/css"></style></defs><path d="M281.6 373.76l251.4176-204.8 235.7504 204.8a76.8 76.8 0 0 1 76.8 76.8v384a76.8 76.8 0 0 1-76.8 76.8H281.6a76.8 76.8 0 0 1-76.8-76.8v-384a76.8 76.8 0 0 1 76.8-76.8z" fill="#47B89C" p-id="1891"></path><path d="M947.2 588.8l-422.4-370.6368L102.4 588.8v-115.8144l422.4-370.5856 422.4 370.5856V588.8z m-316.8256 0H102.4h527.9744z" fill="#F4CE73" p-id="1892"></path><path d="M486.4 588.8m25.6 0l256 0q25.6 0 25.6 25.6l0 230.4q0 25.6-25.6 25.6l-256 0q-25.6 0-25.6-25.6l0-230.4q0-25.6 25.6-25.6Z" fill="#FFFFFF" p-id="1893"></path><path d="M788.48 873.8816h-296.704a34.176 34.176 0 0 1-5.376-0.4352v-59.3664l35.84-44.5952a30.3872 30.3872 0 0 1 20.0448-12.3392 28.9536 28.9536 0 0 1 19.4304 11.1616l33.024 37.6832a15.8976 15.8976 0 0 0 12.8 6.4h0.5376a13.44 13.44 0 0 0 11.4688-6.4l62.72-96.7168a25.6 25.6 0 0 1 18.1504-7.68 31.0272 31.0272 0 0 1 3.4048 0.2304 22.016 22.016 0 0 1 2.7392-0.1536 20.48 20.48 0 0 1 16.0768 7.9104l70.9632 94.6176v69.2992a35.4304 35.4304 0 0 1-5.12 0.384z m-205.9008-153.0624a40.4224 40.4224 0 1 1 40.3712-40.448 40.448 40.448 0 0 1-40.3712 40.448z" fill="#1694F6" p-id="1894"></path><path d="M281.6 537.6h76.8v76.8h-76.8z" fill="#FFFFFF" p-id="1895"></path><path d="M281.6 665.6h76.8v76.8h-76.8z" fill="#FFFFFF" p-id="1896"></path><path d="M281.6 793.6h76.8v76.8h-76.8z" fill="#FFFFFF" p-id="1897"></path></svg>