<?xml version="1.0" standalone="no"?><!DOCTYPE svg PUBLIC "-//W3C//DTD SVG 1.1//EN" "http://www.w3.org/Graphics/SVG/1.1/DTD/svg11.dtd"><svg t="1616764769169" class="icon" viewBox="0 0 1024 1024" version="1.1" xmlns="http://www.w3.org/2000/svg" p-id="5832" xmlns:xlink="http://www.w3.org/1999/xlink" width="200" height="200"><defs><style type="text/css"></style></defs><path d="M619.22304 184.32c114.97472 0 179.58912 56.4736 211.41504 109.9008 31.8208 53.4272 26.8288 76.4672 84.5824 140.31872 57.76384 63.8464 45.39904 252.00128 19.06176 330.9056-1.00352 0.4608-19.3024 0.85504-49.88416 1.19296l-0.03584-0.53248c0-78.09536-63.3088-141.40928-141.40928-141.40928-78.09536 0-141.40416 63.31392-141.40416 141.40928l0.01024 1.78176c-52.21888 0.06656-106.38336 0.08704-159.11424 0.0512l0.02048-1.83296c0-78.09536-63.3088-141.40928-141.40416-141.40928-78.10048 0-141.40928 63.31392-141.40928 141.40928v0.83968c-43.47904-0.384-70.87104-0.88576-73.53344-1.50016-11.84256-71.34208-11.97056-148.15744 0-198.2464C98.08896 517.12 124.3136 476.9024 159.65184 453.8368c35.34336-23.0656 94.11584-17.67424 128.01536-38.98368 47.86688-30.09024 62.8224-58.4448 89.98912-105.61536C430.08 218.20928 504.25344 184.32 619.22304 184.32z m-368.91648 383.0784a12.8 12.8 0 0 0 6.92224 24.64256 179.9168 179.9168 0 0 1 63.25248-5.9904 12.8 12.8 0 0 0 2.1504-25.50784 205.51168 205.51168 0 0 0-72.32512 6.85568z m482.9696-7.1168a12.8 12.8 0 1 0 2.4064 25.49248 179.96288 179.96288 0 0 1 62.5664 5.18656 12.8 12.8 0 1 0 6.56384-24.73984 205.55776 205.55776 0 0 0-71.53664-5.9392zM192.08192 499.6096a205.02528 205.02528 0 0 0-61.93664 55.17312 12.8 12.8 0 1 0 20.57728 15.22688 179.4304 179.4304 0 0 1 54.13888-48.22016 12.8 12.8 0 0 0-12.77952-22.17984zM835.9936 447.872c-140.4672-13.73696-355.1488-17.35168-510.40256-8.7296a12.8 12.8 0 1 0 1.41824 25.56416c153.984-8.5504 367.36-4.96128 506.49088 8.64768a12.8 12.8 0 0 0 2.49344-25.48224zM664.5248 318.72a10.24 10.24 0 0 0-14.3616-1.8432l-82.99008 64.14336-0.64512 0.5376a10.24 10.24 0 0 0 13.16864 15.6672l82.99008-64.14336 0.64512-0.5376a10.24 10.24 0 0 0 1.19296-13.824z m-48.33792-18.55488a10.24 10.24 0 0 0-14.40256-1.536l-39.9104 32.2048-0.62976 0.55296a10.24 10.24 0 0 0 13.4912 15.3856l39.9104-32.2048 0.63488-0.55808a10.24 10.24 0 0 0 0.90624-13.84448z" fill="#D34449" p-id="5833"></path><path d="M300.59008 653.29152c61.824 0 111.94368 50.1248 111.94368 111.9488s-50.11968 111.9488-111.94368 111.9488c-61.82912 0-111.9488-50.1248-111.9488-111.9488 0-61.82912 50.11968-111.9488 111.9488-111.9488z m441.89184 0c61.82912 0 111.9488 50.1248 111.9488 111.9488s-50.1248 111.9488-111.9488 111.9488-111.94368-50.1248-111.94368-111.9488c0-61.82912 50.11968-111.9488 111.94368-111.9488z m-441.89184 81.92a30.0288 30.0288 0 1 0 0 60.0576 30.0288 30.0288 0 0 0 0-60.0576z m441.89184 0a30.0288 30.0288 0 1 0 0 60.0576 30.0288 30.0288 0 0 0 0-60.0576zM391.41376 461.9264c-6.8608 63.49824-1.7408 141.66016 14.32576 173.48608 35.69152 25.63584 61.60896 64.06656 71.08096 108.6464l0.18944 0.95232h56.576l33.37216-0.03584 0.23552-1.1264c11.60704-54.50752 47.92832-99.8656 96.67584-123.79648 20.9664-51.02592 33.75616-101.46304 35.2-155.86816 8.62208 0.38912 17.152 0.80896 25.57952 1.24928-1.3824 49.87904-11.648 96.3072-28.59008 142.51008a179.712 179.712 0 0 1 43.92448-6.15936l2.9696-0.0256c85.3504 0 156.81024 59.50976 175.14496 139.29472l0.46592 2.1248 8.36096-0.2304 2.14016-0.09216 1.16736-0.14336a38.144 38.144 0 0 1 10.0864 0.26624c-1.7152 8.0384-3.73248 15.5648-6.03648 22.46656-1.00352 0.4608-19.3024 0.85504-49.88416 1.19296l-0.03584-0.53248c0-78.09536-63.3088-141.40928-141.40928-141.40928-78.09536 0-141.40416 63.31392-141.40416 141.40928 0 0.59392 0 1.18784 0.01024 1.78176-52.21888 0.06656-106.38336 0.08704-159.11424 0.0512l0.02048-1.83296c0-78.09536-63.3088-141.40928-141.40416-141.40928-78.10048 0-141.40928 63.31392-141.40928 141.40928v0.83968c-43.47904-0.384-70.87104-0.88576-73.53344-1.50016a414.93504 414.93504 0 0 1-3.13856-22.81472 37.632 37.632 0 0 1 6.4 0.01024l1.7152 0.18944 2.3552 0.11776c1.51552 0.06656 3.4304 0.128 5.72416 0.18944l11.99104 0.26624 14.1824 0.22528 0.56832-2.57536a178.64704 178.64704 0 0 1 22.38976-54.2976c-25.29792 1.5872-48.91648 3.4816-70.15424 5.61152-0.2816-1.08544-0.96256-21.5552-0.84992-25.66656 1.06496-0.10752 2.68288-0.256 4.85888-0.4608 26.04544-2.50368 55.1168-4.61824 86.528-6.31808 32.22528-35.072 78.21312-57.30816 129.39776-58.1376l2.9696-0.0256c25.37472 0 49.52064 5.25824 71.40864 14.75072-9.9584-41.48224-12.19072-101.51424-6.89664-153.6512a3048.0896 3048.0896 0 0 1 25.84576-0.93184zM633.51296 501.76a15.36 15.36 0 0 1 0.90112 30.6944l-0.90112 0.0256H609.28a15.36 15.36 0 0 1-0.90112-30.6944L609.28 501.76h24.23296z m-49.83808-265.9328c124.7488 0 140.68736 60.44672 144.2816 204.14464-105.1392-5.59616-227.2768-7.01952-333.4656-3.75296-4.57728-0.04096-8.51456-0.06144-11.71456-0.06144 19.90656-102.19008 72.78592-200.32512 200.89856-200.32512z m67.1744 80.5632l-0.68096 0.4864-82.99008 64.14336-0.64512 0.5376a10.24 10.24 0 0 0 12.48256 16.1536l0.68608-0.49152 82.99008-64.13824 0.64512-0.5376a10.24 10.24 0 0 0-12.48256-16.1536z m-48.384-18.26304l-0.67584 0.49664-39.9104 32.20992-0.62976 0.55296a10.24 10.24 0 0 0 12.81536 15.88736l0.67584-0.50176 39.9104-32.2048 0.63488-0.55808a10.24 10.24 0 0 0-12.82048-15.88224z" fill="#151938" p-id="5834"></path></svg>