<?xml version="1.0" standalone="no"?><!DOCTYPE svg PUBLIC "-//W3C//DTD SVG 1.1//EN" "http://www.w3.org/Graphics/SVG/1.1/DTD/svg11.dtd"><svg t="1616764699644" class="icon" viewBox="0 0 1024 1024" version="1.1" xmlns="http://www.w3.org/2000/svg" p-id="4002" xmlns:xlink="http://www.w3.org/1999/xlink" width="200" height="200"><defs><style type="text/css"></style></defs><path d="M602.69 709.22l32.45-289.83 155.2-0.17 71.61 105.46 64.89 32.58-0.32 151.96z" fill="#E6E9ED" p-id="4003"></path><path d="M852.39 510.6l-62.05-91.38-155.2 0.17-10.19 91.21z" fill="#4FC2E9" p-id="4004"></path><path d="M874.29 510.6l-74.35-109.51-181.03 0.2-36.48 326.05H944.6l0.4-181.25-70.71-35.49z m34.15 180.49l-285.46-0.01 28.36-253.58 129.41-0.15 63.56 93.61 5.29 7.79 8.42 4.23 50.66 25.44-0.24 122.67z" fill="#E6E9ED" p-id="4005"></path><path d="M618.71 219.84H111.2c-20.02 0-36.24 16.22-36.24 36.24v435c0 20.03 16.22 36.26 36.24 36.26h507.48c20.02 0 36.27-16.22 36.27-36.26v-435c0-20.01-16.22-36.24-36.24-36.24z" fill="#FC6E51" p-id="4006"></path><path d="M691.22 437.43h36.24v73.16h-36.24z" fill="#3BAFDA" p-id="4007"></path><path d="M183.28 219.44h36.24v504.85h-36.24zM292.47 219.44h36.24v504.85h-36.24zM401.65 219.44h36.24v504.85h-36.24zM510.83 219.44h36.24v504.85h-36.24z" fill="#E9573F" p-id="4008"></path><path d="M781.81 710.1m-90.62 0a90.62 90.62 0 1 0 181.24 0 90.62 90.62 0 1 0-181.24 0Z" fill="#434A54" p-id="4009"></path><path d="M256.2 710.1m-90.62 0a90.62 90.62 0 1 0 181.24 0 90.62 90.62 0 1 0-181.24 0Z" fill="#434A54" p-id="4010"></path><path d="M763.68 710.1a18.13 18.12 0 1 0 36.26 0 18.13 18.12 0 1 0-36.26 0Z" fill="#F5F7FA" p-id="4011"></path><path d="M238.06 710.1c0 10.01 8.12 18.12 18.13 18.12s18.11-8.11 18.11-18.12c0-10.01-8.1-18.12-18.11-18.12-10 0-18.13 8.12-18.13 18.12z" fill="#F5F7FA" p-id="4012"></path><path d="M944.92 582.34H908.7c-10.01 0-18.11 8.11-18.11 18.12 0 10.01 8.1 18.12 18.11 18.12h36.14l0.08-36.24z" fill="#ED5564" p-id="4013"></path></svg>